<?xml version="1.0" standalone="no"?>
<!DOCTYPE svg PUBLIC "-//W3C//DTD SVG 20010904//EN"
 "http://www.w3.org/TR/2001/REC-SVG-20010904/DTD/svg10.dtd">
<svg version="1.0" xmlns="http://www.w3.org/2000/svg"
 width="700.000000pt" height="700.000000pt" viewBox="0 0 700.000000 700.000000"
 preserveAspectRatio="xMidYMid meet">
<metadata>
Created by potrace 1.14, written by Peter Selinger 2001-2017
</metadata>
<g transform="translate(0.000000,700.000000) scale(0.100000,-0.100000)"
fill="#000000" stroke="none">
<path d="M3427 6954 c-1 -1 -60 -4 -132 -8 -150 -8 -186 -12 -310 -32 -49 -8
-106 -17 -125 -20 -69 -11 -335 -77 -347 -86 -7 -6 -13 -8 -13 -5 0 6 -233
-74 -315 -108 -220 -91 -461 -224 -667 -369 -116 -81 -143 -102 -267 -206 -72
-60 -274 -258 -337 -331 -21 -25 -51 -59 -65 -75 -94 -109 -245 -325 -339
-484 -87 -147 -212 -418 -265 -575 -15 -44 -31 -89 -36 -100 -18 -43 -81 -288
-94 -365 -3 -19 -10 -60 -17 -90 -6 -30 -12 -66 -13 -80 -3 -23 -10 -83 -20
-155 -23 -175 -23 -542 1 -735 19 -159 33 -242 54 -340 12 -52 24 -106 27
-120 22 -105 101 -347 163 -495 39 -94 163 -348 180 -370 4 -5 20 -32 36 -60
51 -93 182 -282 283 -408 166 -209 422 -455 633 -610 82 -61 303 -207 313
-207 3 0 24 -12 46 -26 215 -135 672 -311 960 -368 403 -80 739 -99 1104 -61
27 2 51 6 160 21 17 2 53 9 80 14 28 5 64 12 80 15 136 22 491 129 625 188 19
8 53 23 75 33 259 112 541 283 780 474 163 130 404 369 505 500 19 25 37 47
40 50 7 6 104 137 151 205 91 130 225 372 304 550 79 177 172 463 209 645 3
14 7 36 10 50 6 26 22 113 30 165 41 251 50 648 22 885 -3 19 -7 60 -11 90 -3
30 -8 62 -10 70 -2 8 -7 35 -10 60 -8 56 -53 265 -65 305 -5 17 -26 84 -46
150 -68 225 -204 534 -315 715 -80 130 -112 177 -206 310 -74 103 -201 248
-328 375 -467 469 -1029 782 -1666 928 -84 20 -172 39 -194 42 -23 3 -52 7
-65 10 -14 3 -47 7 -75 10 -27 3 -63 8 -80 10 -74 10 -430 25 -438 19z"/>
</g>
</svg>
