<svg width="447" height="160" viewBox="0 0 447 160" fill="none" xmlns="http://www.w3.org/2000/svg">
<g clip-path="url(#clip0_46_853)">
<path d="M61.3599 48.1156V71.0617H49.8549V58.8772H11.505V71.1506H0V48.1156H6.42139C7.31325 43.4019 7.75918 36.3758 7.75918 26.5926V0.800446H54.2251V48.2046H61.3599V48.1156ZM42.6309 48.2935V11.2952H19.3534V26.5926C19.3534 34.5081 18.729 42.3346 17.8372 48.2935H42.6309Z" fill="black"/>
<path d="M115.228 58.8772H103.456V37.443H91.1481L78.662 58.8772H65.5517L79.8214 35.6643C72.7758 32.9072 68.7624 27.1262 68.7624 19.0328C68.7624 7.73763 76.8783 0.800446 90.3454 0.800446H115.139V58.8772H115.228ZM103.456 27.8377V10.6726H91.3264C84.2807 10.6726 80.7133 13.6965 80.7133 19.2107C80.7133 24.9027 84.2807 27.7488 91.3264 27.7488H103.456V27.8377Z" fill="black"/>
<path d="M150.814 32.1067L142.698 40.2001V58.8772H130.925V0.800446H142.698V26.5926L167.491 0.800446H182.207L159.019 23.9244L183.366 58.9661H169.275L150.814 32.1067Z" fill="black"/>
<path d="M240.624 0.800446L222.519 45.3585C219.13 53.8077 214.581 59.5887 205.484 59.5887C197.012 59.5887 191.661 53.6298 191.393 45.7143L200.758 43.4019C200.936 47.8488 202.72 50.1612 205.93 50.1612C207.803 50.1612 209.498 49.5386 210.657 47.8488L184.169 0.800446H197.368L215.473 36.1089L228.316 0.800446H240.624Z" fill="black"/>
<path d="M284.146 38.955L294.849 42.7793C291.371 53.363 282.095 59.5887 269.698 59.5887C252.664 59.5887 241.694 47.8488 241.694 29.7943C241.694 12.0956 252.842 0 269.698 0C282.095 0 291.281 5.95887 294.849 16.8093L284.146 20.6337C281.828 13.7854 276.833 9.96109 269.698 9.96109C261.404 9.96109 255.607 15.2974 253.912 24.3691H275.674V33.7966H253.556C254.804 43.8466 260.601 49.7165 269.609 49.7165C276.744 49.7165 281.828 45.8922 284.146 38.955Z" fill="black"/>
<path d="M372.262 58.8772H360.757V15.5642L344.704 58.7882H332.396L316.164 15.1195V58.8772H304.659V0.800446H322.318L338.55 44.8249L354.96 0.800446H372.262V58.8772Z" fill="black"/>
<path d="M383.767 29.7943C383.767 12.0956 395.272 0 412.307 0C429.609 0 440.935 11.7399 440.935 29.7943C440.935 47.4931 429.252 59.5887 412.307 59.5887C395.094 59.5887 383.767 47.8488 383.767 29.7943ZM428.806 29.7943C428.806 17.8766 422.206 10.2279 412.217 10.2279C402.229 10.2279 395.629 17.8766 395.629 29.7943C395.629 41.7121 402.229 49.3608 412.217 49.3608C422.206 49.3608 428.806 41.7121 428.806 29.7943Z" fill="black"/>
<path d="M1.87292 118.733C1.87292 101.034 13.1995 88.9383 29.9665 88.9383C42.3633 88.9383 51.5495 95.075 54.9386 105.926L43.8795 109.928C41.5607 102.635 36.6554 98.8994 29.7881 98.8994C20.156 98.8994 13.8238 106.548 13.8238 118.733C13.8238 130.917 19.9777 138.566 29.7881 138.566C36.6554 138.566 41.5607 134.919 43.8795 127.538L54.9386 131.54C51.5495 142.123 42.3633 148.527 29.9665 148.527C13.0212 148.527 1.87292 136.787 1.87292 118.733Z" fill="black"/>
<path d="M105.418 137.41V147.815H63.2328V89.7387H104.615V100.145H74.9162V112.952H97.7478V123.002H74.9162V137.41H105.418Z" fill="black"/>
<path d="M160.535 108.06C160.535 119.533 152.419 126.381 138.952 126.381H126.109V147.815H114.336V89.7387H139.041C152.419 89.7387 160.535 96.7649 160.535 108.06ZM148.584 108.327C148.584 102.546 144.749 99.6109 137.525 99.6109H126.02V116.865H137.525C144.749 116.954 148.584 114.019 148.584 108.327Z" fill="black"/>
<path d="M224.749 137.054V160H213.422V147.727H169.097V89.6498H180.869V137.054H206.02V89.6498H217.792V137.054H224.749Z" fill="black"/>
<path d="M275.406 137.41V147.815H233.221V89.7387H274.603V100.145H244.905V112.952H267.736V123.002H244.905V137.41H275.406Z" fill="black"/>
<path d="M351.839 147.815H340.334V104.591L324.28 147.815H311.972L295.741 104.058V147.815H284.236V89.7387H301.894L318.126 133.763L334.536 89.7387H351.839V147.815Z" fill="black"/>
<path d="M416.498 147.193L362.006 137.588C352.285 135.898 345.863 126.648 347.558 116.954L357.19 62.6126C358.884 52.9183 368.16 46.5147 377.881 48.2046L432.284 57.8099C442.006 59.4997 448.427 68.7493 446.732 78.4436L437.1 132.785C435.406 142.39 426.22 148.883 416.498 147.193Z" fill="#F3F3F3"/>
<path d="M406.866 73.2852C398.929 61.99 384.481 67.2373 381.002 76.9316C382.073 76.8427 383.054 76.8427 384.124 77.0206C388.048 77.4653 391.616 79.333 394.38 82.3569C396.432 81.2896 398.572 80.667 400.802 80.4892C403.566 80.2223 406.42 80.756 409.096 82.0011C414.982 84.7582 419.174 90.6281 419.709 97.1206C419.798 97.9211 419.798 98.8104 419.709 99.6109L423.455 97.0317C439.33 85.9144 422.741 62.2568 406.866 73.2852Z" fill="#205BA6"/>
<path d="M410.345 110.017C426.131 98.9883 409.542 75.3307 393.756 86.3591C382.697 70.617 358.974 87.1595 370.033 102.902L386.621 126.559L410.345 110.017Z" fill="#FFD500"/>
</g>
<defs>
<clipPath id="clip0_46_853">
<rect width="447" height="160" fill="white"/>
</clipPath>
</defs>
</svg>
